<svg width="105" height="26" viewBox="0 0 105 26" fill="none" xmlns="http://www.w3.org/2000/svg"><g clip-path="url(#clip0)"><mask id="mask0" style="mask-type:luminance" maskUnits="userSpaceOnUse" x="0" y="0" width="38" height="26"><path d="M37.5615 0H0V26H37.5615V0Z" fill="white"/></mask><g mask="url(#mask0)"><path d="M27.8181 5.40171C26.7427 5.40171 25.7857 6.56223 25.1764 8.36039C24.34 3.47223 22.2237 0.00012207 19.7441 0.00012207C17.2645 0.00012207 15.3362 3.17175 14.4312 7.71921C13.7569 5.16038 12.607 3.4746 11.301 3.4746C9.22366 3.4746 7.53906 7.73932 7.53906 12.9989C7.53906 18.2586 9.22366 22.5233 11.301 22.5233C12.607 22.5233 13.7569 20.8375 14.4312 18.2787C15.3362 22.8261 17.3745 25.9977 19.7441 25.9977C22.1136 25.9977 24.34 22.5256 25.1752 17.6363C25.7857 19.4356 26.7415 20.595 27.8169 20.595C29.66 20.595 31.1541 17.1927 31.1541 12.9966C31.1541 8.80047 29.66 5.39816 27.8169 5.39816L27.8181 5.40171Z" fill="#B251FF"/><path d="M2.62271 19.1021C4.0712 19.1021 5.24543 16.3702 5.24543 13.0002C5.24543 9.63011 4.0712 6.89819 2.62271 6.89819C1.17423 6.89819 0 9.63011 0 13.0002C0 16.3702 1.17423 19.1021 2.62271 19.1021Z" fill="#B251FF"/><path d="M35.5051 8.13684C34.3706 8.13684 33.4502 10.3147 33.4502 13.0001C33.4502 15.6856 34.3706 17.8635 35.5051 17.8635C36.6396 17.8635 37.5599 15.6856 37.5599 13.0001C37.5599 10.3147 36.6396 8.13684 35.5051 8.13684Z" fill="#B251FF"/></g></g><text x="45" y="20" font-family="Manrope, system-ui, sans-serif" font-size="20" font-weight="600" fill="currentColor">Demo</text><defs><clipPath id="clip0"><rect width="105" height="26" fill="white"/></clipPath></defs></svg>
